Coordinates
version=1
nRows=54
nColumns=12
inDegrees=yes

Units are S.I. units (second, meters, Newtons, ...)
Angles are in degrees

endheader
time	SC_y	SC_z	SC_x	AC_y	AC_z	AC_x	GH_y	GH_z	GH_yy	EL_x	PS_y
       0.0              -57.03          20.99          17.45          38.33          2.316         -8.649         -96.72          1.213          31.18          59.48          150.8
     0.037              -57.03          20.99          17.45          38.33          2.315          -8.65         -96.73          1.225          31.18           59.5          150.8
     0.074              -57.03          20.99          17.46          38.33          2.313         -8.652         -96.74          1.239          31.18          59.51          150.8
     0.111              -57.03          20.99          17.46          38.33          2.311         -8.654         -96.75          1.253          31.18          59.52          150.8
     0.148              -57.03          20.99          17.47          38.32          2.309         -8.656         -96.76          1.268          31.18          59.53          150.8
     0.185              -57.02          20.99          17.47          38.32          2.307         -8.657         -96.77          1.284          31.18          59.55          150.8
     0.222              -57.02          20.99          17.48          38.32          2.305          -8.66         -96.78          1.301          31.18          59.56          150.7
     0.259              -57.02          20.99          17.48          38.32          2.303         -8.662         -96.79           1.32          31.18          59.58          150.7
     0.296              -57.02          20.99          17.49          38.32            2.3         -8.664          -96.8           1.34          31.18           59.6          150.7
     0.333              -57.02          20.99           17.5          38.32          2.298         -8.667         -96.81          1.361          31.18          59.62          150.7
      0.37              -57.02          20.99           17.5          38.32          2.295         -8.669         -96.83          1.383          31.17          59.64          150.6
     0.407              -57.02          20.99          17.51          38.32          2.292         -8.672         -96.84          1.408          31.17          59.66          150.6
     0.444              -57.01          20.98          17.52          38.32          2.288         -8.676         -96.86          1.434          31.17          59.68          150.6
     0.481              -57.01          20.98          17.53          38.31          2.285         -8.679         -96.88          1.463          31.17          59.71          150.5
     0.518              -57.01          20.98          17.54          38.31          2.281         -8.683          -96.9          1.494          31.17          59.73          150.5
     0.555              -57.01          20.98          17.55          38.31          2.277         -8.687         -96.92          1.527          31.17          59.76          150.5
     0.592               -57.0          20.98          17.56          38.31          2.272         -8.691         -96.94          1.563          31.16           59.8          150.4
     0.629               -57.0          20.98          17.58          38.31          2.267         -8.696         -96.96          1.603          31.16          59.83          150.4
     0.666               -57.0          20.97          17.59          38.31          2.262         -8.701         -96.99          1.646          31.16          59.87          150.3
     0.703              -56.99          20.97          17.61           38.3          2.256         -8.707         -97.02          1.693          31.16          59.91          150.3
      0.74              -56.99          20.97          17.62           38.3           2.25         -8.713         -97.05          1.745          31.15          59.96          150.2
     0.777              -56.99          20.97          17.64           38.3          2.242          -8.72         -97.09          1.802          31.15          60.01          150.1
    0.8139              -56.98          20.96          17.66          38.29          2.234         -8.728         -97.13          1.865          31.15          60.07          150.0
    0.8509              -56.98          20.96          17.68          38.29          2.226         -8.736         -97.17          1.935          31.14          60.13          150.0
    0.8879              -56.97          20.96          17.71          38.29          2.216         -8.746         -97.22          2.013          31.14           60.2          149.9
    0.9249              -56.96          20.95          17.74          38.28          2.205         -8.756         -97.27            2.1          31.13          60.27          149.8
    0.9619              -56.96          20.95          17.77          38.28          2.193         -8.768         -97.34          2.197          31.13          60.36          149.6
    0.9989              -56.95          20.94          17.81          38.27          2.179         -8.781          -97.4          2.306          31.12          60.46          149.5
     1.036              -56.94          20.94          17.85          38.27          2.164         -8.796         -97.48           2.43          31.11          60.57          149.3
     1.073              -56.93          20.93          17.89          38.26          2.146         -8.813         -97.57           2.57          31.11          60.69          149.2
      1.11              -56.92          20.92          17.95          38.25          2.126         -8.833         -97.67           2.73           31.1          60.83          149.0
     1.147               -56.9          20.92          18.01          38.24          2.103         -8.855         -97.78          2.914          31.09           61.0          148.8
     1.184              -56.89          20.91          18.08          38.23          2.077         -8.881         -97.91          3.126          31.07          61.19          148.5
     1.221              -56.87          20.89          18.16          38.22          2.046         -8.911         -98.07          3.372          31.06          61.41          148.2
     1.258              -56.85          20.88          18.25          38.21           2.01         -8.946         -98.25          3.661          31.04          61.66          147.8
     1.295              -56.83          20.86          18.36          38.19          1.967         -8.987         -98.46          4.001          31.02          61.96          147.4
     1.332               -56.8          20.85           18.5          38.17          1.917         -9.036         -98.71          4.405           31.0          62.32          146.9
     1.369              -56.76          20.82          18.65          38.14          1.856         -9.095         -99.01          4.889          30.97          62.75          146.3
     1.406              -56.72           20.8          18.85          38.11          1.783         -9.166         -99.38          5.475          30.94          63.28          145.6
     1.443              -56.66          20.76          19.08          38.08          1.693         -9.253         -99.83           6.19           30.9          63.91          144.7
      1.48               -56.6          20.72          19.37          38.03          1.583          -9.36         -100.4          7.074          30.85           64.7          143.6
     1.517              -56.52          20.67          19.73          37.98          1.445         -9.494         -101.1          8.175          30.78          65.68          142.3
     1.554              -56.42          20.61          20.19          37.91          1.271         -9.662         -101.9          9.563           30.7          66.91          140.6
     1.591              -56.29          20.52          20.77          37.82          1.051         -9.876         -103.0          11.33           30.6          68.48          138.4
     1.628              -56.12          20.42          21.51          37.71         0.7683         -10.15         -104.4          13.58          30.47          70.49          135.7
     1.665              -55.91          20.28          22.46          37.57         0.4059          -10.5         -106.2          16.48           30.3          73.07          132.1
     1.702              -55.64          20.11          23.67          37.38       -0.05713         -10.95         -108.6          20.18          30.09          76.36          127.6
     1.739              -55.29           19.9           25.2          37.15        -0.6393         -11.51         -111.5          24.83          29.82           80.5          121.8
     1.776              -54.88          19.63          27.06          36.87         -1.349          -12.2         -115.0          30.51          29.49          85.54          114.9
     1.813              -54.39          19.33          29.22          36.54         -2.171          -13.0         -119.1          37.08          29.12          91.39          106.8
      1.85              -53.87          18.99          31.56          36.18         -3.062         -13.86         -123.5          44.19          28.71          97.72          98.08
     1.887              -53.35          18.66          33.89          35.83         -3.952         -14.73         -128.0          51.31          28.29          104.0          89.34
     1.924              -52.87          18.36          36.05           35.5         -4.774         -15.52         -132.1          57.88          27.92          109.9          81.28
     1.961              -52.45          18.09          37.91          35.22         -5.484         -16.21         -135.6          63.55          27.59          114.9          74.32
